<svg width="44" height="44" viewBox="0 0 44 44" fill="none" xmlns="http://www.w3.org/2000/svg">
<g id="shopping-bag 1" clip-path="url(#clip0_46_2998)">
<path id="Vector" d="M37.7571 40.0107L35.5241 14.7107C35.3564 12.8049 33.7861 11.3667 31.8721 11.3667C31.4324 11.3667 31.0746 11.7242 31.0746 12.1642V16.1086C31.0746 16.4991 30.7794 16.8401 30.3899 16.8648C29.9627 16.8923 29.6079 16.5541 29.6079 16.1333V7.60833C29.6079 3.41275 26.1952 0 21.9996 0C17.804 0 14.3913 3.41275 14.3913 7.60833V11.3667H12.1271C10.2131 11.3667 8.64285 12.8049 8.4751 14.7107L6.2421 40.0107C6.05418 42.1488 7.74021 44 9.89502 44H34.1042C36.2593 44 37.945 42.1485 37.7571 40.0107ZM17.7829 39.1417H12.4663C12.0613 39.1417 11.7329 38.8133 11.7329 38.4083C11.7329 38.0033 12.0613 37.675 12.4663 37.675H17.7829C18.1879 37.675 18.5163 38.0033 18.5163 38.4083C18.5163 38.8133 18.1879 39.1417 17.7829 39.1417ZM17.7829 35.475H12.4663C12.0613 35.475 11.7329 35.1467 11.7329 34.7417C11.7329 34.3367 12.0613 34.0083 12.4663 34.0083H17.7829C18.1879 34.0083 18.5163 34.3367 18.5163 34.7417C18.5163 35.1467 18.1879 35.475 17.7829 35.475ZM28.1413 11.3667H18.1221C17.6821 11.3667 17.3246 11.7242 17.3246 12.1642V16.1086C17.3246 16.4991 17.0294 16.8401 16.6398 16.8648C16.2127 16.8923 15.8579 16.5541 15.8579 16.1333V7.60833C15.8579 4.22217 18.6134 1.46667 21.9996 1.46667C25.3858 1.46667 28.1413 4.22217 28.1413 7.60833V11.3667Z" fill="#DB3022"/>
</g>
<defs>
<clipPath id="clip0_46_2998">
<rect width="44" height="44" fill="red"/>
</clipPath>
</defs>
</svg>
